<?xml version="1.0" encoding="utf-8"?>
<!-- Generator: Adobe Illustrator 18.1.0, SVG Export Plug-In . SVG Version: 6.00 Build 0)  -->
<svg version="1.1" id="Layer_1" xmlns="http://www.w3.org/2000/svg" xmlns:xlink="http://www.w3.org/1999/xlink" x="0px" y="0px"
	 viewBox="0 0 85.5 85.5" enable-background="new 0 0 85.5 85.5" xml:space="preserve">
<g>
	<path fill-rule="evenodd" clip-rule="evenodd" fill="#D52735" d="M42.7,85.5c23.6,0,42.7-19.1,42.7-42.7C85.5,19.1,66.3,0,42.7,0
		C19.1,0,0,19.1,0,42.7C0,66.3,19.1,85.5,42.7,85.5L42.7,85.5z"/>
	<path fill-rule="evenodd" clip-rule="evenodd" fill="#D52735" d="M42.7,81.9c21.6,0,39.1-17.5,39.1-39.1
		c0-21.6-17.5-39.1-39.1-39.1C21.1,3.6,3.6,21.1,3.6,42.7C3.6,64.3,21.1,81.9,42.7,81.9L42.7,81.9z"/>
	<path fill-rule="evenodd" clip-rule="evenodd" fill="#9F1D2B" d="M22.6,57.9l35.3-35.3c1.4-1.4,3.6-1.4,5,0l0.1,0.1
		c1.4,1.4,1.4,3.6,0,5L27.6,62.9c-1.4,1.4-3.6,1.4-5,0l-0.1-0.1C21.2,61.5,21.2,59.2,22.6,57.9L22.6,57.9z"/>
	<path fill-rule="evenodd" clip-rule="evenodd" fill="#9F1D2B" d="M27.6,22.6l35.3,35.3c1.4,1.4,1.4,3.6,0,5l-0.1,0.1
		c-1.4,1.4-3.6,1.4-5,0L22.6,27.6c-1.4-1.4-1.4-3.6,0-5l0.1-0.1C24,21.2,26.2,21.2,27.6,22.6L27.6,22.6z"/>
</g>
</svg>
