<svg viewBox="0 0 24 24" xmlns="http://www.w3.org/2000/svg"><symbol viewBox="5.5 -3.5 64 64" id="icon-by"><title>by</title> <g> <circle fill="#FFFFFF" cx="37.637" cy="28.806" r="28.276"/> <g> <path d="M37.443-3.5c8.988,0,16.57,3.085,22.742,9.257C66.393,11.967,69.5,19.548,69.5,28.5c0,8.991-3.049,16.476-9.145,22.456
			C53.879,57.319,46.242,60.5,37.443,60.5c-8.649,0-16.153-3.144-22.514-9.43C8.644,44.784,5.5,37.262,5.5,28.5
			c0-8.761,3.144-16.342,9.429-22.742C21.101-0.415,28.604-3.5,37.443-3.5z M37.557,2.272c-7.276,0-13.428,2.553-18.457,7.657
			c-5.22,5.334-7.829,11.525-7.829,18.572c0,7.086,2.59,13.22,7.77,18.398c5.181,5.182,11.352,7.771,18.514,7.771
			c7.123,0,13.334-2.607,18.629-7.828c5.029-4.838,7.543-10.952,7.543-18.343c0-7.276-2.553-13.465-7.656-18.571
			C50.967,4.824,44.795,2.272,37.557,2.272z M46.129,20.557v13.085h-3.656v15.542h-9.944V33.643h-3.656V20.557
			c0-0.572,0.2-1.057,0.599-1.457c0.401-0.399,0.887-0.6,1.457-0.6h13.144c0.533,0,1.01,0.2,1.428,0.6
			C45.918,19.5,46.129,19.986,46.129,20.557z M33.042,12.329c0-3.008,1.485-4.514,4.458-4.514s4.457,1.504,4.457,4.514
			c0,2.971-1.486,4.457-4.457,4.457S33.042,15.3,33.042,12.329z"/> </g> </g> </symbol><symbol viewBox="5.5 -3.5 64 64" id="icon-cc"><title>cc</title> <g> <circle fill="#FFFFFF" cx="37.785" cy="28.501" r="28.836"/> <path d="M37.441-3.5c8.951,0,16.572,3.125,22.857,9.372c3.008,3.009,5.295,6.448,6.857,10.314
		c1.561,3.867,2.344,7.971,2.344,12.314c0,4.381-0.773,8.486-2.314,12.313c-1.543,3.828-3.82,7.21-6.828,10.143
		c-3.123,3.085-6.666,5.448-10.629,7.086c-3.961,1.638-8.057,2.457-12.285,2.457s-8.276-0.808-12.143-2.429
		c-3.866-1.618-7.333-3.961-10.4-7.027c-3.067-3.066-5.4-6.524-7-10.372S5.5,32.767,5.5,28.5c0-4.229,0.809-8.295,2.428-12.2
		c1.619-3.905,3.972-7.4,7.057-10.486C21.08-0.394,28.565-3.5,37.441-3.5z M37.557,2.272c-7.314,0-13.467,2.553-18.458,7.657
		c-2.515,2.553-4.448,5.419-5.8,8.6c-1.354,3.181-2.029,6.505-2.029,9.972c0,3.429,0.675,6.734,2.029,9.913
		c1.353,3.183,3.285,6.021,5.8,8.516c2.514,2.496,5.351,4.399,8.515,5.715c3.161,1.314,6.476,1.971,9.943,1.971
		c3.428,0,6.75-0.665,9.973-1.999c3.219-1.335,6.121-3.257,8.713-5.771c4.99-4.876,7.484-10.99,7.484-18.344
		c0-3.543-0.648-6.895-1.943-10.057c-1.293-3.162-3.18-5.98-5.654-8.458C50.984,4.844,44.795,2.272,37.557,2.272z M37.156,23.187
		l-4.287,2.229c-0.458-0.951-1.019-1.619-1.685-2c-0.667-0.38-1.286-0.571-1.858-0.571c-2.856,0-4.286,1.885-4.286,5.657
		c0,1.714,0.362,3.084,1.085,4.113c0.724,1.029,1.791,1.544,3.201,1.544c1.867,0,3.181-0.915,3.944-2.743l3.942,2
		c-0.838,1.563-2,2.791-3.486,3.686c-1.484,0.896-3.123,1.343-4.914,1.343c-2.857,0-5.163-0.875-6.915-2.629
		c-1.752-1.752-2.628-4.19-2.628-7.313c0-3.048,0.886-5.466,2.657-7.257c1.771-1.79,4.009-2.686,6.715-2.686
		C32.604,18.558,35.441,20.101,37.156,23.187z M55.613,23.187l-4.229,2.229c-0.457-0.951-1.02-1.619-1.686-2
		c-0.668-0.38-1.307-0.571-1.914-0.571c-2.857,0-4.287,1.885-4.287,5.657c0,1.714,0.363,3.084,1.086,4.113
		c0.723,1.029,1.789,1.544,3.201,1.544c1.865,0,3.18-0.915,3.941-2.743l4,2c-0.875,1.563-2.057,2.791-3.541,3.686
		c-1.486,0.896-3.105,1.343-4.857,1.343c-2.896,0-5.209-0.875-6.941-2.629c-1.736-1.752-2.602-4.19-2.602-7.313
		c0-3.048,0.885-5.466,2.658-7.257c1.77-1.79,4.008-2.686,6.713-2.686C51.117,18.558,53.938,20.101,55.613,23.187z"/> </g> </symbol><symbol viewBox="0 0 18 18" id="icon-close_gray_18px"><title>close_gray_18px</title> <metadata id="close_gray_18px-metadata3783"> <rdf:RDF> <cc:Work rdf:about=""> <dc:format>image/svg+xml</dc:format> <dc:type rdf:resource="http://purl.org/dc/dcmitype/StillImage"/> <dc:title/> </cc:Work> </rdf:RDF> </metadata>  <sodipodi:namedview pagecolor="#ffffff" bordercolor="#666666" borderopacity="1" objecttolerance="10" gridtolerance="10" guidetolerance="10" inkscape:pageopacity="0" inkscape:pageshadow="2" inkscape:window-width="640" inkscape:window-height="480" id="close_gray_18px-namedview3779" showgrid="false" inkscape:zoom="13.111111" inkscape:cx="9" inkscape:cy="9" inkscape:window-x="0" inkscape:window-y="0" inkscape:window-maximized="0" inkscape:current-layer="svg3773"/> <path d="M0 0h18v18h-18zm0 0h18v18h-18z" fill="none" id="close_gray_18px-path3775"/> <path d="M14.53 4.53l-1.06-1.06-4.47 4.47-4.47-4.47-1.06 1.06 4.47 4.47-4.47 4.47 1.06 1.06 4.47-4.47 4.47 4.47 1.06-1.06-4.47-4.47z" id="close_gray_18px-path3777" style="fill:#4d4d4d"/> </symbol><symbol viewBox="0 0 24 24" id="icon-ic_add_circle_24px"><title>ic_add_circle_24px</title><path d="M12 2C6.48 2 2 6.48 2 12s4.48 10 10 10 10-4.48 10-10S17.52 2 12 2zm5 11h-4v4h-2v-4H7v-2h4V7h2v4h4v2z"/></symbol><symbol viewBox="0 0 24 24" id="icon-ic_arrow_back_24px"><title>ic_arrow_back_24px</title><path d="M20 11H7.83l5.59-5.59L12 4l-8 8 8 8 1.41-1.41L7.83 13H20v-2z"/></symbol><symbol viewBox="0 0 24 24" id="icon-ic_arrow_forward_24px"><title>ic_arrow_forward_24px</title><path d="M12 4l-1.41 1.41L16.17 11H4v2h12.17l-5.58 5.59L12 20l8-8z"/></symbol><symbol viewBox="0 0 24 24" id="icon-ic_backspace_24px"><title>ic_backspace_24px</title> <path d="M0 0h24v24h-24z" fill="none"/> <path d="M22 3h-15c-.69 0-1.23.35-1.59.88l-5.41 8.12 5.41 8.11c.36.53.9.89 1.59.89h15c1.1 0 2-.9 2-2v-14c0-1.1-.9-2-2-2zm-3 12.59l-1.41 1.41-3.59-3.59-3.59 3.59-1.41-1.41 3.59-3.59-3.59-3.59 1.41-1.41 3.59 3.59 3.59-3.59 1.41 1.41-3.59 3.59 3.59 3.59z"/> </symbol><symbol viewBox="0 0 24 24" id="icon-ic_bug_report_24px"><title>ic_bug_report_24px</title><path d="M20 8h-2.81c-.45-.78-1.07-1.45-1.82-1.96L17 4.41 15.59 3l-2.17 2.17C12.96 5.06 12.49 5 12 5c-.49 0-.96.06-1.41.17L8.41 3 7 4.41l1.62 1.63C7.88 6.55 7.26 7.22 6.81 8H4v2h2.09c-.05.33-.09.66-.09 1v1H4v2h2v1c0 .34.04.67.09 1H4v2h2.81c1.04 1.79 2.97 3 5.19 3s4.15-1.21 5.19-3H20v-2h-2.09c.05-.33.09-.66.09-1v-1h2v-2h-2v-1c0-.34-.04-.67-.09-1H20V8zm-6 8h-4v-2h4v2zm0-4h-4v-2h4v2z"/></symbol><symbol viewBox="0 0 24 24" id="icon-ic_check_24px"><title>ic_check_24px</title><path d="M9 16.17L4.83 12l-1.42 1.41L9 19 21 7l-1.41-1.41z"/></symbol><symbol viewBox="0 0 18 18" id="icon-ic_close_18px"><title>ic_close_18px</title><path d="M14.53 4.53l-1.06-1.06L9 7.94 4.53 3.47 3.47 4.53 7.94 9l-4.47 4.47 1.06 1.06L9 10.06l4.47 4.47 1.06-1.06L10.06 9z"/></symbol><symbol viewBox="0 0 24 24" id="icon-ic_close_24px"><title>ic_close_24px</title><path d="M19 6.41L17.59 5 12 10.59 6.41 5 5 6.41 10.59 12 5 17.59 6.41 19 12 13.41 17.59 19 19 17.59 13.41 12z"/></symbol><symbol viewBox="0 0 24 24" id="icon-ic_expand_less_24px"><title>ic_expand_less_24px</title><path d="M12 8l-6 6 1.41 1.41L12 10.83l4.59 4.58L18 14z"/></symbol><symbol viewBox="0 0 24 24" id="icon-ic_expand_more_24px"><title>ic_expand_more_24px</title><path d="M16.59 8.59L12 13.17 7.41 8.59 6 10l6 6 6-6z"/></symbol><symbol viewBox="0 0 24 24" id="icon-ic_file_download_24px"><title>ic_file_download_24px</title><path d="M19 9h-4V3H9v6H5l7 7 7-7zM5 18v2h14v-2H5z"/></symbol><symbol viewBox="0 0 24 24" id="icon-ic_folder_24px"><title>ic_folder_24px</title><path d="M10 4H4c-1.1 0-1.99.9-1.99 2L2 18c0 1.1.9 2 2 2h16c1.1 0 2-.9 2-2V8c0-1.1-.9-2-2-2h-8l-2-2z"/></symbol><symbol viewBox="0 0 24 24" id="icon-ic_help_24px"><title>ic_help_24px</title><path d="M12 2C6.48 2 2 6.48 2 12s4.48 10 10 10 10-4.48 10-10S17.52 2 12 2zm1 17h-2v-2h2v2zm2.07-7.75l-.9.92C13.45 12.9 13 13.5 13 15h-2v-.5c0-1.1.45-2.1 1.17-2.83l1.24-1.26c.37-.36.59-.86.59-1.41 0-1.1-.9-2-2-2s-2 .9-2 2H8c0-2.21 1.79-4 4-4s4 1.79 4 4c0 .88-.36 1.68-.93 2.25z"/></symbol><symbol viewBox="0 0 24 24" id="icon-ic_home_24px"><title>ic_home_24px</title><path d="M10 20v-6h4v6h5v-8h3L12 3 2 12h3v8z"/></symbol><symbol viewBox="0 0 24 24" id="icon-ic_keyboard_backspace_24px"><title>ic_keyboard_backspace_24px</title><path d="M21 11H6.83l3.58-3.59L9 6l-6 6 6 6 1.41-1.41L6.83 13H21z"/></symbol><symbol viewBox="0 0 24 24" id="icon-ic_menu_24px"><title>ic_menu_24px</title><path d="M3 18h18v-2H3v2zm0-5h18v-2H3v2zm0-7v2h18V6H3z"/></symbol><symbol viewBox="0 0 24 24" id="icon-ic_more_horiz_24px"><title>ic_more_horiz_24px</title><path d="M6 10c-1.1 0-2 .9-2 2s.9 2 2 2 2-.9 2-2-.9-2-2-2zm12 0c-1.1 0-2 .9-2 2s.9 2 2 2 2-.9 2-2-.9-2-2-2zm-6 0c-1.1 0-2 .9-2 2s.9 2 2 2 2-.9 2-2-.9-2-2-2z"/></symbol><symbol viewBox="0 0 24 24" id="icon-ic_more_vert_24px"><title>ic_more_vert_24px</title><path d="M12 8c1.1 0 2-.9 2-2s-.9-2-2-2-2 .9-2 2 .9 2 2 2zm0 2c-1.1 0-2 .9-2 2s.9 2 2 2 2-.9 2-2-.9-2-2-2zm0 6c-1.1 0-2 .9-2 2s.9 2 2 2 2-.9 2-2-.9-2-2-2z"/></symbol><symbol viewBox="0 0 24 24" id="icon-ic_refresh_24px"><title>ic_refresh_24px</title><path d="M17.65 6.35C16.2 4.9 14.21 4 12 4c-4.42 0-7.99 3.58-7.99 8s3.57 8 7.99 8c3.73 0 6.84-2.55 7.73-6h-2.08c-.82 2.33-3.04 4-5.65 4-3.31 0-6-2.69-6-6s2.69-6 6-6c1.66 0 3.14.69 4.22 1.78L13 11h7V4l-2.35 2.35z"/></symbol><symbol viewBox="0 0 24 24" id="icon-ic_remove_24px"><title>ic_remove_24px</title><path d="M19 13H5v-2h14v2z"/></symbol><symbol viewBox="0 0 24 24" id="icon-ic_remove_circle_24px"><title>ic_remove_circle_24px</title><path d="M12 2C6.48 2 2 6.48 2 12s4.48 10 10 10 10-4.48 10-10S17.52 2 12 2zm5 11H7v-2h10v2z"/></symbol><symbol viewBox="0 0 24 24" id="icon-ic_schedule_24px"><title>ic_schedule_24px</title><path fill-opacity=".9" d="M11.99 2C6.47 2 2 6.48 2 12s4.47 10 9.99 10C17.52 22 22 17.52 22 12S17.52 2 11.99 2zM12 20c-4.42 0-8-3.58-8-8s3.58-8 8-8 8 3.58 8 8-3.58 8-8 8zM12.5 7H11v6l5.25 3.15.75-1.23-4.5-2.67z"/></symbol><symbol viewBox="0 0 24 24" id="icon-ic_search_24px"><title>ic_search_24px</title><path d="M15.5 14h-.79l-.28-.27C15.41 12.59 16 11.11 16 9.5 16 5.91 13.09 3 9.5 3S3 5.91 3 9.5 5.91 16 9.5 16c1.61 0 3.09-.59 4.23-1.57l.27.28v.79l5 4.99L20.49 19l-4.99-5zm-6 0C7.01 14 5 11.99 5 9.5S7.01 5 9.5 5 14 7.01 14 9.5 11.99 14 9.5 14z"/></symbol><symbol viewBox="0 0 24 24" id="icon-ic_settings_24px"><title>ic_settings_24px</title><path d="M19.43 12.98c.04-.32.07-.64.07-.98s-.03-.66-.07-.98l2.11-1.65c.19-.15.24-.42.12-.64l-2-3.46c-.12-.22-.39-.3-.61-.22l-2.49 1c-.52-.4-1.08-.73-1.69-.98l-.38-2.65C14.46 2.18 14.25 2 14 2h-4c-.25 0-.46.18-.49.42l-.38 2.65c-.61.25-1.17.59-1.69.98l-2.49-1c-.23-.09-.49 0-.61.22l-2 3.46c-.13.22-.07.49.12.64l2.11 1.65c-.04.32-.07.65-.07.98s.03.66.07.98l-2.11 1.65c-.19.15-.24.42-.12.64l2 3.46c.12.22.39.3.61.22l2.49-1c.52.4 1.08.73 1.69.98l.38 2.65c.03.24.24.42.49.42h4c.25 0 .46-.18.49-.42l.38-2.65c.61-.25 1.17-.59 1.69-.98l2.49 1c.23.09.49 0 .61-.22l2-3.46c.12-.22.07-.49-.12-.64l-2.11-1.65zM12 15.5c-1.93 0-3.5-1.57-3.5-3.5s1.57-3.5 3.5-3.5 3.5 1.57 3.5 3.5-1.57 3.5-3.5 3.5z"/></symbol><symbol viewBox="0 0 85.5 85.5" id="icon-mac-close-hover"><title>mac-close-hover</title> <g> <path fill-rule="evenodd" clip-rule="evenodd" fill="#D52735" d="M42.7,85.5c23.6,0,42.7-19.1,42.7-42.7C85.5,19.1,66.3,0,42.7,0
		C19.1,0,0,19.1,0,42.7C0,66.3,19.1,85.5,42.7,85.5L42.7,85.5z"/> <path fill-rule="evenodd" clip-rule="evenodd" fill="#F25056" d="M42.7,81.9c21.6,0,39.1-17.5,39.1-39.1
		c0-21.6-17.5-39.1-39.1-39.1C21.1,3.6,3.6,21.1,3.6,42.7C3.6,64.3,21.1,81.9,42.7,81.9L42.7,81.9z"/> <path fill-rule="evenodd" clip-rule="evenodd" fill="#9F1D2B" d="M22.6,57.9l35.3-35.3c1.4-1.4,3.6-1.4,5,0l0.1,0.1
		c1.4,1.4,1.4,3.6,0,5L27.6,62.9c-1.4,1.4-3.6,1.4-5,0l-0.1-0.1C21.2,61.5,21.2,59.2,22.6,57.9L22.6,57.9z"/> <path fill-rule="evenodd" clip-rule="evenodd" fill="#9F1D2B" d="M27.6,22.6l35.3,35.3c1.4,1.4,1.4,3.6,0,5l-0.1,0.1
		c-1.4,1.4-3.6,1.4-5,0L22.6,27.6c-1.4-1.4-1.4-3.6,0-5l0.1-0.1C24,21.2,26.2,21.2,27.6,22.6L27.6,22.6z"/> </g> </symbol><symbol viewBox="0 0 85.5 85.5" id="icon-mac-close-nofocus"><title>mac-close-nofocus</title> <g> <path fill-rule="evenodd" clip-rule="evenodd" fill="#B4B4B4" d="M42.7,85.5c23.6,0,42.7-19.1,42.7-42.7C85.5,19.1,66.3,0,42.7,0
		S0,19.1,0,42.7C0,66.3,19.1,85.5,42.7,85.5L42.7,85.5z"/> <path fill-rule="evenodd" clip-rule="evenodd" fill="#C7C7C7" d="M42.7,81.9c21.6,0,39.1-17.5,39.1-39.1
		c0-21.6-17.5-39.1-39.1-39.1S3.6,21.1,3.6,42.7C3.6,64.3,21.1,81.9,42.7,81.9L42.7,81.9z"/> </g> </symbol><symbol viewBox="0 0 85.5 85.5" id="icon-mac-close-normal"><title>mac-close-normal</title> <g> <path fill-rule="evenodd" clip-rule="evenodd" fill="#D52735" d="M42.7,85.5c23.6,0,42.7-19.1,42.7-42.7C85.5,19.1,66.3,0,42.7,0
		C19.1,0,0,19.1,0,42.7C0,66.3,19.1,85.5,42.7,85.5L42.7,85.5z"/> <path fill-rule="evenodd" clip-rule="evenodd" fill="#F25056" d="M42.7,81.9c21.6,0,39.1-17.5,39.1-39.1
		c0-21.6-17.5-39.1-39.1-39.1C21.1,3.6,3.6,21.1,3.6,42.7C3.6,64.3,21.1,81.9,42.7,81.9L42.7,81.9z"/> </g> </symbol><symbol viewBox="0 0 85.5 85.5" id="icon-mac-close-press"><title>mac-close-press</title> <g> <path fill-rule="evenodd" clip-rule="evenodd" fill="#D52735" d="M42.7,85.5c23.6,0,42.7-19.1,42.7-42.7C85.5,19.1,66.3,0,42.7,0
		C19.1,0,0,19.1,0,42.7C0,66.3,19.1,85.5,42.7,85.5L42.7,85.5z"/> <path fill-rule="evenodd" clip-rule="evenodd" fill="#D52735" d="M42.7,81.9c21.6,0,39.1-17.5,39.1-39.1
		c0-21.6-17.5-39.1-39.1-39.1C21.1,3.6,3.6,21.1,3.6,42.7C3.6,64.3,21.1,81.9,42.7,81.9L42.7,81.9z"/> <path fill-rule="evenodd" clip-rule="evenodd" fill="#9F1D2B" d="M22.6,57.9l35.3-35.3c1.4-1.4,3.6-1.4,5,0l0.1,0.1
		c1.4,1.4,1.4,3.6,0,5L27.6,62.9c-1.4,1.4-3.6,1.4-5,0l-0.1-0.1C21.2,61.5,21.2,59.2,22.6,57.9L22.6,57.9z"/> <path fill-rule="evenodd" clip-rule="evenodd" fill="#9F1D2B" d="M27.6,22.6l35.3,35.3c1.4,1.4,1.4,3.6,0,5l-0.1,0.1
		c-1.4,1.4-3.6,1.4-5,0L22.6,27.6c-1.4-1.4-1.4-3.6,0-5l0.1-0.1C24,21.2,26.2,21.2,27.6,22.6L27.6,22.6z"/> </g> </symbol><symbol viewBox="0 0 85.5 85.5" id="icon-mac-max-hover"><title>mac-max-hover</title> <g> <path fill-rule="evenodd" clip-rule="evenodd" fill="#13C11E" d="M42.7,85.5c23.6,0,42.7-19.1,42.7-42.7C85.5,19.1,66.3,0,42.7,0
		C19.1,0,0,19.1,0,42.7C0,66.3,19.1,85.5,42.7,85.5L42.7,85.5z"/> <path fill-rule="evenodd" clip-rule="evenodd" fill="#39EA49" d="M42.7,81.9c21.6,0,39.1-17.5,39.1-39.1
		c0-21.6-17.5-39.1-39.1-39.1S3.6,21.1,3.6,42.7C3.6,64.3,21.1,81.9,42.7,81.9L42.7,81.9z"/> <path fill-rule="evenodd" clip-rule="evenodd" fill="#0B7407" d="M31.2,20.9h26.7c3.6,0,6.5,2.9,6.5,6.5v26.7L31.2,20.9L31.2,20.9z
		 M54.4,64.6H27.6c-3.6,0-6.5-2.9-6.5-6.5V31.3L54.4,64.6L54.4,64.6z"/> </g> </symbol><symbol viewBox="0 0 85.5 85.5" id="icon-mac-max-nofocus"><title>mac-max-nofocus</title> <g> <path fill-rule="evenodd" clip-rule="evenodd" fill="#B4B4B4" d="M42.7,85.5c23.6,0,42.7-19.1,42.7-42.7C85.5,19.1,66.3,0,42.7,0
		C19.1,0,0,19.1,0,42.7C0,66.3,19.1,85.5,42.7,85.5L42.7,85.5z"/> <path fill-rule="evenodd" clip-rule="evenodd" fill="#C7C7C7" d="M42.7,81.9c21.6,0,39.1-17.5,39.1-39.1
		c0-21.6-17.5-39.1-39.1-39.1C21.1,3.6,3.6,21.1,3.6,42.7C3.6,64.3,21.1,81.9,42.7,81.9L42.7,81.9z"/> </g> </symbol><symbol viewBox="0 0 85.5 85.5" id="icon-mac-max-normal"><title>mac-max-normal</title> <g> <path fill-rule="evenodd" clip-rule="evenodd" fill="#13C11E" d="M42.7,85.5c23.6,0,42.7-19.1,42.7-42.7C85.5,19.1,66.3,0,42.7,0
		C19.1,0,0,19.1,0,42.7C0,66.3,19.1,85.5,42.7,85.5L42.7,85.5z"/> <path fill-rule="evenodd" clip-rule="evenodd" fill="#39EA49" d="M42.7,81.9c21.6,0,39.1-17.5,39.1-39.1
		c0-21.6-17.5-39.1-39.1-39.1C21.1,3.6,3.6,21.1,3.6,42.7C3.6,64.3,21.1,81.9,42.7,81.9L42.7,81.9z"/> </g> </symbol><symbol viewBox="0 0 85.5 85.5" id="icon-mac-max-press"><title>mac-max-press</title> <g> <path fill-rule="evenodd" clip-rule="evenodd" fill="#13C11E" d="M42.7,85.5c23.6,0,42.7-19.1,42.7-42.7C85.5,19.1,66.3,0,42.7,0
		C19.1,0,0,19.1,0,42.7C0,66.3,19.1,85.5,42.7,85.5L42.7,85.5z"/> <path fill-rule="evenodd" clip-rule="evenodd" fill="#13C11E" d="M42.7,81.9c21.6,0,39.1-17.5,39.1-39.1
		c0-21.6-17.5-39.1-39.1-39.1S3.6,21.1,3.6,42.7C3.6,64.3,21.1,81.9,42.7,81.9L42.7,81.9z"/> <path fill-rule="evenodd" clip-rule="evenodd" fill="#0B7407" d="M31.2,20.9h26.7c3.6,0,6.5,2.9,6.5,6.5v26.7L31.2,20.9L31.2,20.9z
		 M54.4,64.6H27.6c-3.6,0-6.5-2.9-6.5-6.5V31.3L54.4,64.6L54.4,64.6z"/> </g> </symbol><symbol viewBox="0 0 85.5 85.5" id="icon-mac-min-hover"><title>mac-min-hover</title> <g> <path fill-rule="evenodd" clip-rule="evenodd" fill="#DA9E10" d="M42.7,85.5c23.6,0,42.7-19.1,42.7-42.7C85.5,19.1,66.3,0,42.7,0
		C19.1,0,0,19.1,0,42.7C0,66.3,19.1,85.5,42.7,85.5L42.7,85.5z"/> <path fill-rule="evenodd" clip-rule="evenodd" fill="#FAC536" d="M42.7,81.9c21.6,0,39.1-17.5,39.1-39.1
		c0-21.6-17.5-39.1-39.1-39.1C21.1,3.6,3.6,21.1,3.6,42.7C3.6,64.3,21.1,81.9,42.7,81.9L42.7,81.9z"/> <path fill-rule="evenodd" clip-rule="evenodd" fill="#975914" d="M17.8,39.2h49.9c1.9,0,3.5,1.6,3.5,3.5v0.1c0,1.9-1.6,3.5-3.5,3.5
		H17.8c-1.9,0-3.5-1.6-3.5-3.5v-0.1C14.3,40.8,15.9,39.2,17.8,39.2L17.8,39.2z"/> </g> </symbol><symbol viewBox="0 0 85.5 85.5" id="icon-mac-min-nofocus"><title>mac-min-nofocus</title> <g> <path fill-rule="evenodd" clip-rule="evenodd" fill="#B4B4B4" d="M42.7,85.5c23.6,0,42.7-19.1,42.7-42.7C85.5,19.1,66.3,0,42.7,0
		S0,19.1,0,42.7C0,66.3,19.1,85.5,42.7,85.5L42.7,85.5z"/> <path fill-rule="evenodd" clip-rule="evenodd" fill="#C7C7C7" d="M42.7,81.9c21.6,0,39.1-17.5,39.1-39.1
		c0-21.6-17.5-39.1-39.1-39.1S3.6,21.1,3.6,42.7C3.6,64.3,21.1,81.9,42.7,81.9L42.7,81.9z"/> </g> </symbol><symbol viewBox="0 0 85.5 85.5" id="icon-mac-min-normal"><title>mac-min-normal</title> <g> <path fill-rule="evenodd" clip-rule="evenodd" fill="#DA9E10" d="M42.7,85.5c23.6,0,42.7-19.1,42.7-42.7C85.5,19.1,66.3,0,42.7,0
		C19.1,0,0,19.1,0,42.7C0,66.3,19.1,85.5,42.7,85.5L42.7,85.5z"/> <path fill-rule="evenodd" clip-rule="evenodd" fill="#FAC536" d="M42.7,81.9c21.6,0,39.1-17.5,39.1-39.1
		c0-21.6-17.5-39.1-39.1-39.1C21.1,3.6,3.6,21.1,3.6,42.7C3.6,64.3,21.1,81.9,42.7,81.9L42.7,81.9z"/> </g> </symbol><symbol viewBox="0 0 85.5 85.5" id="icon-mac-min-press"><title>mac-min-press</title> <g> <path fill-rule="evenodd" clip-rule="evenodd" fill="#FAC536" d="M42.7,85.5c23.6,0,42.7-19.1,42.7-42.7C85.5,19.1,66.3,0,42.7,0
		S0,19.1,0,42.7C0,66.3,19.1,85.5,42.7,85.5L42.7,85.5z"/> <path fill-rule="evenodd" clip-rule="evenodd" fill="#FAC536" d="M42.7,81.9c21.6,0,39.1-17.5,39.1-39.1
		c0-21.6-17.5-39.1-39.1-39.1C21.1,3.6,3.6,21.1,3.6,42.7C3.6,64.3,21.1,81.9,42.7,81.9L42.7,81.9z"/> <path fill-rule="evenodd" clip-rule="evenodd" fill="#975914" d="M17.8,39.2h49.9c1.9,0,3.5,1.6,3.5,3.5v0.1c0,1.9-1.6,3.5-3.5,3.5
		H17.8c-1.9,0-3.5-1.6-3.5-3.5v-0.1C14.3,40.8,15.9,39.2,17.8,39.2L17.8,39.2z"/> </g> </symbol><symbol viewBox="0 0 18 18" id="icon-mac_close_18px"><title>mac_close_18px</title> <metadata id="mac_close_18px-metadata3069"> <rdf:RDF> <cc:Work rdf:about=""> <dc:format>image/svg+xml</dc:format> <dc:type rdf:resource="http://purl.org/dc/dcmitype/StillImage"/> <dc:title/> </cc:Work> </rdf:RDF> </metadata>  <sodipodi:namedview pagecolor="#ffffff" bordercolor="#666666" borderopacity="1" objecttolerance="10" gridtolerance="10" guidetolerance="10" inkscape:pageopacity="0" inkscape:pageshadow="2" inkscape:window-width="1280" inkscape:window-height="661" id="mac_close_18px-namedview3065" showgrid="false" inkscape:zoom="9.8333333" inkscape:cx="12" inkscape:cy="12" inkscape:window-x="-8" inkscape:window-y="-8" inkscape:window-maximized="1" inkscape:current-layer="svg3061"/> <path d="M 8.9491525,2.1016949 C 5.1132203,2.1016949 2,5.2149153 2,9.0508475 2,12.88678 5.1132203,16 8.9491525,16 c 3.8359325,0 6.9491525,-3.11322 6.9491525,-6.9491525 0,-3.8359322 -3.11322,-6.9491526 -6.9491525,-6.9491526 z" id="mac_close_18px-path3368"/> <path inkscape:connector-curvature="0" d="M 12.694916,6.1510408 11.950654,5.4067793 9,8.3574328 6.0493462,5.4067793 5.3050847,6.1510408 8.2557385,9.1016948 5.3050847,12.052348 6.0493462,12.79661 9,9.8459558 11.950654,12.79661 12.694916,12.052348 9.7442618,9.1016948 z" id="mac_close_18px-path3347" style="fill:#ffffff"/> </symbol><symbol viewBox="0 0 18 18" id="icon-mac_maximize_18px"><title>mac_maximize_18px</title> <metadata id="mac_maximize_18px-metadata3069"> <rdf:RDF> <cc:Work rdf:about=""> <dc:format>image/svg+xml</dc:format> <dc:type rdf:resource="http://purl.org/dc/dcmitype/StillImage"/> <dc:title/> </cc:Work> </rdf:RDF> </metadata>  <sodipodi:namedview pagecolor="#ffffff" bordercolor="#666666" borderopacity="1" objecttolerance="10" gridtolerance="10" guidetolerance="10" inkscape:pageopacity="0" inkscape:pageshadow="2" inkscape:window-width="1280" inkscape:window-height="661" id="mac_maximize_18px-namedview3065" showgrid="false" inkscape:zoom="9.8333333" inkscape:cx="12" inkscape:cy="12" inkscape:window-x="-8" inkscape:window-y="-8" inkscape:window-maximized="1" inkscape:current-layer="svg3061"/> <path d="M 8.9491525,2.1016949 C 5.1132203,2.1016949 2,5.2149153 2,9.0508475 2,12.88678 5.1132203,16 8.9491525,16 c 3.8359325,0 6.9491525,-3.11322 6.9491525,-6.9491525 0,-3.8359322 -3.11322,-6.9491526 -6.9491525,-6.9491526 z M 12.423729,9.7457627 H 9.6440678 V 12.525424 H 8.2542373 V 9.7457627 H 5.4745763 V 8.3559322 h 2.779661 v -2.779661 h 1.3898305 v 2.779661 h 2.7796612 v 1.3898305 z" id="mac_maximize_18px-path3063" inkscape:connector-curvature="0"/> </symbol><symbol viewBox="0 0 18 18" id="icon-mac_minimize_18px"><title>mac_minimize_18px</title> <metadata id="mac_minimize_18px-metadata3013"> <rdf:RDF> <cc:Work rdf:about=""> <dc:format>image/svg+xml</dc:format> <dc:type rdf:resource="http://purl.org/dc/dcmitype/StillImage"/> <dc:title/> </cc:Work> </rdf:RDF> </metadata>  <sodipodi:namedview pagecolor="#ffffff" bordercolor="#666666" borderopacity="1" objecttolerance="10" gridtolerance="10" guidetolerance="10" inkscape:pageopacity="0" inkscape:pageshadow="2" inkscape:window-width="1280" inkscape:window-height="661" id="mac_minimize_18px-namedview3009" showgrid="false" inkscape:zoom="19.75" inkscape:cx="12" inkscape:cy="12" inkscape:window-x="-8" inkscape:window-y="-8" inkscape:window-maximized="1" inkscape:current-layer="svg3005"/> <path d="M 8.8607595,2.278481 C 5.0736203,2.278481 2,5.3521013 2,9.1392405 2,12.92638 5.0736203,16 8.8607595,16 c 3.7871395,0 6.8607595,-3.07362 6.8607595,-6.8607595 0,-3.7871392 -3.07362,-6.8607595 -6.8607595,-6.8607595 z M 12.291139,9.8253165 H 5.4303797 V 8.4531646 h 6.8607593 v 1.3721519 z" id="mac_minimize_18px-path3007" inkscape:connector-curvature="0"/> </symbol><symbol viewBox="0 0 16 16" id="icon-maximize_restore_16px"><title>maximize_restore_16px</title> <metadata id="maximize_restore_16px-metadata3689"> <rdf:RDF> <cc:Work rdf:about=""> <dc:format>image/svg+xml</dc:format> <dc:type rdf:resource="http://purl.org/dc/dcmitype/StillImage"/> <dc:title/> </cc:Work> </rdf:RDF> </metadata>  <sodipodi:namedview pagecolor="#ffffff" bordercolor="#666666" borderopacity="1" objecttolerance="10" gridtolerance="10" guidetolerance="10" inkscape:pageopacity="0" inkscape:pageshadow="2" inkscape:window-width="847" inkscape:window-height="586" id="maximize_restore_16px-namedview3685" showgrid="false" inkscape:zoom="9.8333333" inkscape:cx="12" inkscape:cy="12" inkscape:window-x="250" inkscape:window-y="30" inkscape:window-maximized="0" inkscape:current-layer="svg3681"/> <path d="M 8.4071342,3.9305061 5.1109378,7.226702 6.0513648,8.1671292 9.3475612,4.8709328 10.758201,6.2815733 10.753501,2.5245677 6.9964951,2.5198477 8.4071352,3.9304878 z M 5.110938,13.809691 8.8679432,13.814391 7.4573032,12.40375 10.7535,9.107575 9.8130722,8.1671478 l -3.296196,3.2961962 -1.4106404,-1.41064 0.0047,3.757005 z" id="maximize_restore_16px-path3683" inkscape:connector-curvature="0"/> </symbol><symbol viewBox="0 0 18 18" id="icon-maximize_restore_18px"><title>maximize_restore_18px</title> <metadata id="maximize_restore_18px-metadata3689"> <rdf:RDF> <cc:Work rdf:about=""> <dc:format>image/svg+xml</dc:format> <dc:type rdf:resource="http://purl.org/dc/dcmitype/StillImage"/> <dc:title/> </cc:Work> </rdf:RDF> </metadata>  <sodipodi:namedview pagecolor="#ffffff" bordercolor="#666666" borderopacity="1" objecttolerance="10" gridtolerance="10" guidetolerance="10" inkscape:pageopacity="0" inkscape:pageshadow="2" inkscape:window-width="847" inkscape:window-height="586" id="maximize_restore_18px-namedview3685" showgrid="false" inkscape:zoom="9.8333333" inkscape:cx="12" inkscape:cy="12" inkscape:window-x="250" inkscape:window-y="30" inkscape:window-maximized="0" inkscape:current-layer="svg3681"/> <path d="M 9.7227313,3.6165918 5.4174619,7.9218605 6.6457842,9.1501828 10.951054,4.8449137 12.793536,6.6873972 12.787398,1.7802499 7.8802497,1.774085 9.7227326,3.6165679 z M 5.4174622,16.520116 10.324609,16.526255 8.4821261,14.683771 12.787396,10.37853 11.559073,9.1502076 7.2538038,13.455476 5.4113205,11.612993 l 0.00614,4.907147 z" id="maximize_restore_18px-path3683" inkscape:connector-curvature="0"/> </symbol><symbol viewBox="0 0 24 24" id="icon-maximize_restore_24px"><title>maximize_restore_24px</title> <metadata id="maximize_restore_24px-metadata3689"> <rdf:RDF> <cc:Work rdf:about=""> <dc:format>image/svg+xml</dc:format> <dc:type rdf:resource="http://purl.org/dc/dcmitype/StillImage"/> <dc:title/> </cc:Work> </rdf:RDF> </metadata>  <sodipodi:namedview pagecolor="#ffffff" bordercolor="#666666" borderopacity="1" objecttolerance="10" gridtolerance="10" guidetolerance="10" inkscape:pageopacity="0" inkscape:pageshadow="2" inkscape:window-width="847" inkscape:window-height="586" id="maximize_restore_24px-namedview3685" showgrid="false" inkscape:zoom="9.8333333" inkscape:cx="12" inkscape:cy="12" inkscape:window-x="250" inkscape:window-y="30" inkscape:window-maximized="0" inkscape:current-layer="svg3681"/> <path d="m 12.714193,5.6289652 -4.9568185,4.9568178 1.4142137,1.414214 4.9568188,-4.9568185 2.12132,2.1213204 -0.0071,-5.6497831 -5.649784,-0.0071 2.12132,2.12132 z m -4.9568183,14.8563128 5.6497833,0.0071 -2.121321,-2.121321 4.95682,-4.956818 -1.414215,-1.414214 -4.956818,4.956818 -2.1213204,-2.12132 0.00707,5.649783 z" id="maximize_restore_24px-path3683" inkscape:connector-curvature="0"/> </symbol><symbol viewBox="0 0 18 18" id="icon-maximize_restore_gray_18px"><title>maximize_restore_gray_18px</title> <metadata id="maximize_restore_gray_18px-metadata3689"> <rdf:RDF> <cc:Work rdf:about=""> <dc:format>image/svg+xml</dc:format> <dc:type rdf:resource="http://purl.org/dc/dcmitype/StillImage"/> <dc:title/> </cc:Work> </rdf:RDF> </metadata>  <sodipodi:namedview pagecolor="#ffffff" bordercolor="#666666" borderopacity="1" objecttolerance="10" gridtolerance="10" guidetolerance="10" inkscape:pageopacity="0" inkscape:pageshadow="2" inkscape:window-width="847" inkscape:window-height="586" id="maximize_restore_gray_18px-namedview3685" showgrid="false" inkscape:zoom="9.8333333" inkscape:cx="12" inkscape:cy="12" inkscape:window-x="250" inkscape:window-y="30" inkscape:window-maximized="0" inkscape:current-layer="svg3681"/> <path d="M 9.7227313,3.6165918 5.4174619,7.9218605 6.6457842,9.1501828 10.951054,4.8449137 12.793536,6.6873972 12.787398,1.7802499 7.8802497,1.774085 9.7227326,3.6165679 z M 5.4174622,16.520116 10.324609,16.526255 8.4821261,14.683771 12.787396,10.37853 11.559073,9.1502076 7.2538038,13.455476 5.4113205,11.612993 l 0.00614,4.907147 z" id="maximize_restore_gray_18px-path3683" inkscape:connector-curvature="0" style="fill:#4d4d4d"/> </symbol><symbol viewBox="0 0 18 18" id="icon-minimize_18px"><title>minimize_18px</title> <metadata id="minimize_18px-metadata3701"> <rdf:RDF> <cc:Work rdf:about=""> <dc:format>image/svg+xml</dc:format> <dc:type rdf:resource="http://purl.org/dc/dcmitype/StillImage"/> <dc:title/> </cc:Work> </rdf:RDF> </metadata>  <sodipodi:namedview pagecolor="#ffffff" bordercolor="#666666" borderopacity="1" objecttolerance="10" gridtolerance="10" guidetolerance="10" inkscape:pageopacity="0" inkscape:pageshadow="2" inkscape:window-width="640" inkscape:window-height="480" id="minimize_18px-namedview3697" showgrid="false" inkscape:zoom="9.8333333" inkscape:cx="12" inkscape:cy="12" inkscape:window-x="0" inkscape:window-y="0" inkscape:window-maximized="0" inkscape:current-layer="svg3691"/> <path d="M 16.050847,15.135593 H 2.0508475 v -2 H 16.050847 v 2 z" id="minimize_18px-path3693" inkscape:connector-curvature="0"/> <path d="M 0,-6 H 24 V 18 H 0 z" id="minimize_18px-path3695" inkscape:connector-curvature="0" style="fill:none"/> </symbol><symbol viewBox="0 0 18 18" id="icon-minimize_gray_18px"><title>minimize_gray_18px</title> <metadata id="minimize_gray_18px-metadata3701"> <rdf:RDF> <cc:Work rdf:about=""> <dc:format>image/svg+xml</dc:format> <dc:type rdf:resource="http://purl.org/dc/dcmitype/StillImage"/> <dc:title/> </cc:Work> </rdf:RDF> </metadata>  <sodipodi:namedview pagecolor="#ffffff" bordercolor="#666666" borderopacity="1" objecttolerance="10" gridtolerance="10" guidetolerance="10" inkscape:pageopacity="0" inkscape:pageshadow="2" inkscape:window-width="640" inkscape:window-height="480" id="minimize_gray_18px-namedview3697" showgrid="false" inkscape:zoom="9.8333333" inkscape:cx="12" inkscape:cy="12" inkscape:window-x="393" inkscape:window-y="14" inkscape:window-maximized="0" inkscape:current-layer="svg3691"/> <path d="M 16.050847,15.135593 H 2.0508475 v -2 H 16.050847 v 2 z" id="minimize_gray_18px-path3693" inkscape:connector-curvature="0" style="fill:#4d4d4d"/> <path d="M 0,-6 H 24 V 18 H 0 z" id="minimize_gray_18px-path3695" inkscape:connector-curvature="0" style="fill:none"/> </symbol><symbol viewBox="5.5 -3.5 64 64" id="icon-nc"><title>nc</title> <g> <circle fill="#FFFFFF" cx="37.47" cy="28.736" r="29.471"/> <g> <path d="M37.442-3.5c8.99,0,16.571,3.085,22.743,9.256C66.393,11.928,69.5,19.509,69.5,28.5c0,8.992-3.048,16.476-9.145,22.458
			C53.88,57.32,46.241,60.5,37.442,60.5c-8.686,0-16.19-3.162-22.513-9.485C8.644,44.728,5.5,37.225,5.5,28.5
			c0-8.762,3.144-16.343,9.429-22.743C21.1-0.414,28.604-3.5,37.442-3.5z M12.7,19.872c-0.952,2.628-1.429,5.505-1.429,8.629
			c0,7.086,2.59,13.22,7.77,18.4c5.219,5.144,11.391,7.715,18.514,7.715c7.201,0,13.409-2.608,18.63-7.829
			c1.867-1.79,3.332-3.657,4.398-5.602l-12.056-5.371c-0.421,2.02-1.439,3.667-3.057,4.942c-1.622,1.276-3.535,2.011-5.744,2.2
			v4.915h-3.714v-4.915c-3.543-0.036-6.782-1.312-9.714-3.827l4.4-4.457c2.094,1.942,4.476,2.913,7.143,2.913
			c1.104,0,2.048-0.246,2.83-0.743c0.78-0.494,1.172-1.312,1.172-2.457c0-0.801-0.287-1.448-0.858-1.943l-3.085-1.315l-3.771-1.715
			l-5.086-2.229L12.7,19.872z M37.557,2.214c-7.276,0-13.428,2.571-18.457,7.714c-1.258,1.258-2.439,2.686-3.543,4.287L27.786,19.7
			c0.533-1.676,1.542-3.019,3.029-4.028c1.484-1.009,3.218-1.571,5.2-1.686V9.071h3.715v4.915c2.934,0.153,5.6,1.143,8,2.971
			l-4.172,4.286c-1.793-1.257-3.619-1.885-5.486-1.885c-0.991,0-1.876,0.191-2.656,0.571c-0.781,0.381-1.172,1.029-1.172,1.943
			c0,0.267,0.095,0.533,0.285,0.8l4.057,1.83l2.8,1.257l5.144,2.285l16.397,7.314c0.535-2.248,0.801-4.533,0.801-6.857
			c0-7.353-2.552-13.543-7.656-18.573C51.005,4.785,44.831,2.214,37.557,2.214z"/> </g> </g> </symbol><symbol viewBox="0 0 16 16" id="icon-win-close"><title>win-close</title> <line fill="none" stroke="#010101" stroke-width="1.4" stroke-miterlimit="10" x1="2.8" y1="13.4" x2="13.6" y2="2.7"/> <line fill="none" stroke="#010101" stroke-width="1.4" stroke-miterlimit="10" x1="13.6" y1="13.4" x2="2.7" y2="2.6"/> </symbol><symbol viewBox="0 0 16 16" id="icon-win-max"><title>win-max</title> <rect x="2.5" y="3.1" fill="none" stroke="#010101" stroke-width="1.4" stroke-miterlimit="10" width="11" height="10.5"/> </symbol><symbol viewBox="0 0 16 16" id="icon-win-min"><title>win-min</title> <line fill="none" stroke="#000000" stroke-width="1.4" stroke-miterlimit="10" x1="2" y1="13.6" x2="14" y2="13.6"/> </symbol><symbol viewBox="0 0 16 16" id="icon-win-restore"><title>win-restore</title> <g> <g> <g> <rect x="1.5" y="4.4" fill="none" stroke="#010101" stroke-width="1.4" stroke-miterlimit="10" width="11" height="10.1"/> </g> </g> </g> <line fill="none" stroke="#010101" stroke-width="1.4" stroke-miterlimit="10" x1="3.4" y1="4" x2="3.4" y2="1.8"/> <line fill="none" stroke="#010101" stroke-width="1.4" stroke-miterlimit="10" x1="3.4" y1="2.5" x2="14.4" y2="2.5"/> <line fill="none" stroke="#010101" stroke-width="1.4" stroke-miterlimit="10" x1="14.4" y1="1.8" x2="14.4" y2="13.2"/> <line fill="none" stroke="#010101" stroke-width="1.2" stroke-miterlimit="10" x1="15" y1="12.6" x2="12.5" y2="12.6"/> </symbol></svg>