<?xml version="1.0" encoding="utf-8"?>
<!-- Generator: Adobe Illustrator 18.1.0, SVG Export Plug-In . SVG Version: 6.00 Build 0)  -->
<svg version="1.1" id="Layer_1" xmlns="http://www.w3.org/2000/svg" xmlns:xlink="http://www.w3.org/1999/xlink" x="0px" y="0px"
	 viewBox="0 0 85.5 85.5" enable-background="new 0 0 85.5 85.5" xml:space="preserve">
<g>
	<path fill-rule="evenodd" clip-rule="evenodd" fill="#13C11E" d="M42.7,85.5c23.6,0,42.7-19.1,42.7-42.7C85.5,19.1,66.3,0,42.7,0
		C19.1,0,0,19.1,0,42.7C0,66.3,19.1,85.5,42.7,85.5L42.7,85.5z"/>
	<path fill-rule="evenodd" clip-rule="evenodd" fill="#13C11E" d="M42.7,81.9c21.6,0,39.1-17.5,39.1-39.1
		c0-21.6-17.5-39.1-39.1-39.1S3.6,21.1,3.6,42.7C3.6,64.3,21.1,81.9,42.7,81.9L42.7,81.9z"/>
	<path fill-rule="evenodd" clip-rule="evenodd" fill="#0B7407" d="M31.2,20.9h26.7c3.6,0,6.5,2.9,6.5,6.5v26.7L31.2,20.9L31.2,20.9z
		 M54.4,64.6H27.6c-3.6,0-6.5-2.9-6.5-6.5V31.3L54.4,64.6L54.4,64.6z"/>
</g>
</svg>
