<?xml version="1.0" encoding="utf-8"?>
<!-- Generator: Adobe Illustrator 18.1.0, SVG Export Plug-In . SVG Version: 6.00 Build 0)  -->
<svg version="1.1" id="Layer_1" xmlns="http://www.w3.org/2000/svg" xmlns:xlink="http://www.w3.org/1999/xlink" x="0px" y="0px"
	 viewBox="0 0 85.5 85.5" enable-background="new 0 0 85.5 85.5" xml:space="preserve">
<g>
	<path fill-rule="evenodd" clip-rule="evenodd" fill="#DA9E10" d="M42.7,85.5c23.6,0,42.7-19.1,42.7-42.7C85.5,19.1,66.3,0,42.7,0
		C19.1,0,0,19.1,0,42.7C0,66.3,19.1,85.5,42.7,85.5L42.7,85.5z"/>
	<path fill-rule="evenodd" clip-rule="evenodd" fill="#FAC536" d="M42.7,81.9c21.6,0,39.1-17.5,39.1-39.1
		c0-21.6-17.5-39.1-39.1-39.1C21.1,3.6,3.6,21.1,3.6,42.7C3.6,64.3,21.1,81.9,42.7,81.9L42.7,81.9z"/>
	<path fill-rule="evenodd" clip-rule="evenodd" fill="#975914" d="M17.8,39.2h49.9c1.9,0,3.5,1.6,3.5,3.5v0.1c0,1.9-1.6,3.5-3.5,3.5
		H17.8c-1.9,0-3.5-1.6-3.5-3.5v-0.1C14.3,40.8,15.9,39.2,17.8,39.2L17.8,39.2z"/>
</g>
</svg>
