<?xml version="1.0" encoding="utf-8"?>
<!-- Generator: Adobe Illustrator 18.1.0, SVG Export Plug-In . SVG Version: 6.00 Build 0)  -->
<svg version="1.1" id="Layer_1" xmlns="http://www.w3.org/2000/svg" xmlns:xlink="http://www.w3.org/1999/xlink" x="0px" y="0px"
	 viewBox="4 -4 24 24" enable-background="new 4 -4 24 24" xml:space="preserve">
<path fill="#FFFFFF" d="M16,4c1.1,0,2-0.9,2-2s-0.9-2-2-2s-2,0.9-2,2S14.9,4,16,4z M16,6c-1.1,0-2,0.9-2,2s0.9,2,2,2s2-0.9,2-2
	S17.1,6,16,6z M16,12c-1.1,0-2,0.9-2,2s0.9,2,2,2s2-0.9,2-2S17.1,12,16,12z"/>
</svg>
